<svg xmlns="http://www.w3.org/2000/svg" xml:space="preserve" width="2.99641in" height="2.99641in" version="1.1" style="shape-rendering:geometricPrecision; text-rendering:geometricPrecision; image-rendering:optimizeQuality; fill-rule:evenodd; clip-rule:evenodd" viewBox="0 0 2996.41 2996.41" xmlns:xlink="http://www.w3.org/1999/xlink">
<defs>
<style type="text/css">
   
    .fil0 {fill:black}
   
  </style>
</defs>
<g id="Layer_x0020_1">
<metadata id="CorelCorpID_0Corel-Layer"></metadata>
<path class="fil0" d="M1498.2 0c827.44,0 1498.2,670.77 1498.2,1498.2 0,827.44 -670.77,1498.2 -1498.2,1498.2 -827.44,0 -1498.2,-670.77 -1498.2,-1498.2 0,-827.44 670.77,-1498.2 1498.2,-1498.2zm860.69 1099.46c97.27,0 97.27,147.88 0,147.88l-101.39 0c-24,75.93 -37.96,151.68 -39.02,227.05 -1.01,72.93 10.02,145.95 35.73,218.91l104.67 0c97.27,0 97.27,147.88 0,147.88l-107.5 0c-20.4,72.05 -30.88,147.31 -30.14,222.3 0.8,78.3 14,156.54 41.14,230.82l96.5 0c97.27,0 97.27,147.88 0,147.88l-1720.4 0 -73.94 -73.94 0 -516.35 51.8 -32.86 -51.8 -51.8 0 -516.34 47.39 -30.1 -47.39 -47.4 0 -545.22 73.94 -73.94 1719.91 0c97.27,0 97.27,147.88 0,147.88l-109.28 0c-37.47,132.65 -43.41,264.88 -1.81,397.35l111.59 0zm-871.11 -149.62l0 512.36 -201.8 -143.23 -221.04 143.23 0 -512.36 -60.11 0c-58.33,0 -58.33,-88.71 0,-88.71l1126.87 0c3.5,-53.09 12.4,-106.11 25.99,-159.02l-1445.26 0 0 397.35 338.5 0 0 147.88 -338.5 0 0 445.96 1448.75 0c-22.42,-73.31 -32.1,-146.65 -31.05,-219.96 1.02,-75.51 13.52,-150.88 35.14,-226l-663.48 0 0 -147.88 653.43 0c-13.65,-49.87 -21.44,-99.74 -24.09,-149.62l-643.33 0zm672.11 891.34l-1447.46 0 0 453.12 1456.61 0c-23.71,-74.74 -35.38,-152.41 -36.15,-230.12 -0.77,-75.09 8.63,-150.36 27,-223z" id="id_101" style="fill: rgb(101, 186, 155);"></path>
</g>
</svg>